<svg width="51" height="39" viewBox="0 0 51 39" fill="none" xmlns="http://www.w3.org/2000/svg">
<path d="M0.276047 21.9117C-1.77284 7.87302 8.08583 1.45445 13.2713 0C4.69632 8.27142 9.25572 17.738 12.6073 21.4374C7.82656 20.1474 2.39449 21.2161 0.276047 21.9117Z" fill="#008FF5"/>
<path d="M37.5545 28.268C25.9821 45.4369 2.93218 37.5638 0.65564 23.0509C0.65564 23.0509 7.86467 20.7744 13.2714 22.7663C15.7377 25.2326 25.5078 36.6153 37.5545 28.268Z" fill="#2A3744"/>
<path d="M15.5479 23.3358C25.982 26.3711 37.3647 21.8181 37.9338 9.10742C42.2971 17.3599 39.736 23.3358 38.5978 25.8969C37.9338 27.794 27.4048 36.1413 15.5479 23.3358Z" fill="#008FF5"/>
<circle cx="23.6196" cy="10.5299" r="9.77013" fill="#99D4FF"/>
<path d="M17.9613 12.574L14.0499 13.6203C14.0499 13.6203 15.7469 20.9541 24.3787 20.1107C33.0106 19.2673 32.4415 14.2939 32.4415 14.2939L31.8406 13.8361C30.3881 12.7298 28.4566 12.4802 26.7706 13.181L26.3431 13.3587C24.9197 13.9504 23.3056 13.8696 21.9484 13.1387L21.7136 13.0123C20.5644 12.3935 19.2223 12.2367 17.9613 12.574Z" fill="#4193CF"/>
<path d="M17.0293 14.2427L13.8021 13.1324C13.8021 13.1324 15.3126 21.0225 24.4695 20.1293C33.6265 19.2361 33.1052 13.1855 33.1052 13.1855L31.9813 13.7285C30.7953 14.3014 29.4342 14.3955 28.1807 13.9911L25.826 13.2316C24.5904 12.833 23.2495 12.9186 22.0745 13.4709L20.8748 14.0348C19.6688 14.6017 18.2894 14.6763 17.0293 14.2427Z" fill="#2E495E"/>
<path d="M34.1483 10.4341C34.1483 16.1967 29.4768 20.8682 23.7142 20.8682C17.9515 20.8682 13.28 16.1967 13.28 10.4341C13.28 4.67152 17.9515 0 23.7142 0C29.4768 0 34.1483 4.67152 34.1483 10.4341ZM14.2016 10.4341C14.2016 15.6878 18.4605 19.9467 23.7142 19.9467C28.9678 19.9467 33.2267 15.6878 33.2267 10.4341C33.2267 5.18046 28.9678 0.921531 23.7142 0.921531C18.4605 0.921531 14.2016 5.18046 14.2016 10.4341Z" fill="url(#paint0_linear_326_943)"/>
<path d="M27.3357 3.07275C27.3547 3.10416 27.3664 3.15634 27.3612 3.23012C27.7504 5.82866 27.2686 9.5474 24.0633 10.6407C25.3403 10.3143 27.8838 8.61116 27.8391 4.40955C28.077 7.49522 27.2447 13.4096 22.0136 12.3804L21.5955 12.2364L21.2508 12.0421C21.2182 11.9901 21.1858 11.9347 21.1531 11.8766L22.9457 10.5369C23.616 9.97144 24.1709 9.28217 24.579 8.5068L25.3331 7.07345L23.5927 9.56484C23.185 10.0154 22.7347 10.4259 22.248 10.7898L21.0516 11.6846C20.4796 10.5481 20.0373 8.56505 21.4489 6.9582C23.4165 4.7186 25.194 6.14554 26.3915 4.81853C27.1332 3.99653 27.3433 3.48403 27.3612 3.23012C27.3533 3.17725 27.3443 3.12467 27.3357 3.07275Z" fill="url(#paint1_linear_326_943)"/>
<defs>
<linearGradient id="paint0_linear_326_943" x1="20.0148" y1="0.758845" x2="22.7656" y2="14.3232" gradientUnits="userSpaceOnUse">
<stop stop-color="#48B3FF"/>
<stop offset="1" stop-color="#2E495E"/>
</linearGradient>
<linearGradient id="paint1_linear_326_943" x1="19.9302" y1="4.6064" x2="27.1014" y2="12.0029" gradientUnits="userSpaceOnUse">
<stop stop-color="#47ACF5"/>
<stop offset="1" stop-color="#008FF5"/>
</linearGradient>
</defs>
</svg>