<svg width="279" height="39" viewBox="0 0 279 39" fill="none" xmlns="http://www.w3.org/2000/svg">
<path d="M0.276047 21.9117C-1.77284 7.87302 8.08583 1.45445 13.2713 0C4.69632 8.27142 9.25572 17.738 12.6073 21.4374C7.82656 20.1474 2.39449 21.2161 0.276047 21.9117Z" fill="#008FF5"/>
<path d="M37.5545 28.268C25.9821 45.4369 2.93218 37.5638 0.65564 23.0509C0.65564 23.0509 7.86467 20.7744 13.2714 22.7663C15.7377 25.2326 25.5078 36.6153 37.5545 28.268Z" fill="#2A3744"/>
<path d="M15.5479 23.3358C25.982 26.3711 37.3647 21.8181 37.9338 9.10742C42.2971 17.3599 39.736 23.3358 38.5978 25.8969C37.9338 27.794 27.4048 36.1413 15.5479 23.3358Z" fill="#008FF5"/>
<circle cx="23.6196" cy="10.5299" r="9.77013" fill="#99D4FF"/>
<path d="M17.9613 12.574L14.0499 13.6203C14.0499 13.6203 15.7469 20.9541 24.3787 20.1107C33.0106 19.2673 32.4415 14.2939 32.4415 14.2939L31.8406 13.8361C30.3881 12.7298 28.4566 12.4802 26.7706 13.181L26.3431 13.3587C24.9197 13.9504 23.3056 13.8696 21.9484 13.1387L21.7136 13.0123C20.5644 12.3935 19.2223 12.2367 17.9613 12.574Z" fill="#4193CF"/>
<path d="M17.0293 14.2427L13.8021 13.1324C13.8021 13.1324 15.3126 21.0225 24.4695 20.1293C33.6265 19.2361 33.1052 13.1855 33.1052 13.1855L31.9813 13.7285C30.7953 14.3014 29.4342 14.3955 28.1807 13.9911L25.826 13.2316C24.5904 12.833 23.2495 12.9186 22.0745 13.4709L20.8748 14.0348C19.6688 14.6017 18.2894 14.6763 17.0293 14.2427Z" fill="#2E495E"/>
<path d="M34.1483 10.4341C34.1483 16.1967 29.4768 20.8682 23.7142 20.8682C17.9515 20.8682 13.28 16.1967 13.28 10.4341C13.28 4.67152 17.9515 0 23.7142 0C29.4768 0 34.1483 4.67152 34.1483 10.4341ZM14.2016 10.4341C14.2016 15.6878 18.4605 19.9467 23.7142 19.9467C28.9678 19.9467 33.2267 15.6878 33.2267 10.4341C33.2267 5.18046 28.9678 0.921531 23.7142 0.921531C18.4605 0.921531 14.2016 5.18046 14.2016 10.4341Z" fill="url(#paint0_linear_326_941)"/>
<path d="M27.3357 3.07275C27.3547 3.10416 27.3664 3.15634 27.3612 3.23012C27.7504 5.82866 27.2686 9.5474 24.0633 10.6407C25.3403 10.3143 27.8838 8.61116 27.8391 4.40955C28.077 7.49522 27.2447 13.4096 22.0136 12.3804L21.5955 12.2364L21.2508 12.0421C21.2182 11.9901 21.1858 11.9347 21.1531 11.8766L22.9457 10.5369C23.616 9.97144 24.1709 9.28217 24.579 8.5068L25.3331 7.07345L23.5927 9.56484C23.185 10.0154 22.7347 10.4259 22.248 10.7898L21.0516 11.6846C20.4796 10.5481 20.0373 8.56505 21.4489 6.9582C23.4165 4.7186 25.194 6.14554 26.3915 4.81853C27.1332 3.99653 27.3433 3.48403 27.3612 3.23012C27.3533 3.17725 27.3443 3.12467 27.3357 3.07275Z" fill="url(#paint1_linear_326_941)"/>
<path d="M60.013 20.4193C58.9677 20.9613 57.6675 21.2323 56.1125 21.2323C54.0992 21.2323 52.4861 20.5967 51.273 19.3256C50.0599 18.0544 49.4534 16.3864 49.4534 14.3216C49.4534 12.1019 50.1341 10.308 51.4956 8.94009C52.8636 7.57214 54.5896 6.88817 56.6738 6.88817C58.016 6.88817 59.129 7.07852 60.013 7.45922V9.74344C59.0774 9.18852 58.045 8.91106 56.9158 8.91106C55.4123 8.91106 54.1928 9.39178 53.2572 10.3532C52.328 11.3147 51.8634 12.5987 51.8634 14.2054C51.8634 15.7347 52.299 16.9542 53.1701 17.864C54.0412 18.7674 55.1865 19.2191 56.6061 19.2191C57.916 19.2191 59.0516 18.9094 60.013 18.2899V20.4193ZM70.0017 21H67.8239V19.4514H67.7852C67.1012 20.6387 66.0978 21.2323 64.7751 21.2323C63.8007 21.2323 63.0361 20.9677 62.4812 20.4386C61.9327 19.9095 61.6585 19.2094 61.6585 18.3383C61.6585 16.4671 62.736 15.3766 64.8912 15.0668L67.8336 14.6506C67.8336 13.2375 67.1625 12.531 65.8204 12.531C64.6396 12.531 63.5749 12.9375 62.6264 13.7505V11.7857C63.6717 11.1662 64.8783 10.8565 66.2463 10.8565C68.7499 10.8565 70.0017 12.089 70.0017 14.5539V21ZM67.8336 16.1315L65.7526 16.4219C65.1074 16.5058 64.6202 16.6639 64.2911 16.8961C63.9685 17.122 63.8072 17.522 63.8072 18.0963C63.8072 18.5157 63.9556 18.861 64.2524 19.132C64.5557 19.3965 64.959 19.5288 65.4623 19.5288C66.1462 19.5288 66.7108 19.2901 67.1561 18.8126C67.6078 18.3286 67.8336 17.7221 67.8336 16.9929V16.1315ZM78.4997 13.2278C78.2287 13.0149 77.8383 12.9084 77.3286 12.9084C76.664 12.9084 76.1091 13.2085 75.6638 13.8086C75.2186 14.4087 74.996 15.2249 74.996 16.2573V21H72.7505V11.0888H74.996V13.1311H75.0347C75.2541 12.4342 75.5896 11.8922 76.0413 11.505C76.4994 11.1114 77.0092 10.9146 77.5706 10.9146C77.9771 10.9146 78.2868 10.9759 78.4997 11.0985V13.2278ZM82.3713 19.5675H82.3326V21H80.0871V6.32679H82.3326V12.831H82.3713C83.1392 11.5147 84.2619 10.8565 85.7396 10.8565C86.9914 10.8565 87.9689 11.3017 88.6723 12.1922C89.382 13.0762 89.7369 14.2635 89.7369 15.754C89.7369 17.4124 89.3401 18.7416 88.5464 19.7417C87.7528 20.7354 86.6687 21.2323 85.2943 21.2323C84.0038 21.2323 83.0295 20.6774 82.3713 19.5675ZM82.3132 15.6282V16.8574C82.3132 17.5801 82.5423 18.1931 83.0004 18.6964C83.465 19.1997 84.0522 19.4514 84.762 19.4514C85.5944 19.4514 86.2461 19.1287 86.7171 18.4835C87.1946 17.8318 87.4334 16.9252 87.4334 15.7637C87.4334 14.7894 87.2107 14.028 86.7655 13.4795C86.3267 12.9246 85.7299 12.6471 84.9749 12.6471C84.1748 12.6471 83.5295 12.931 83.0391 13.4989C82.5552 14.0667 82.3132 14.7765 82.3132 15.6282ZM96.4251 21.2323C94.8958 21.2323 93.673 20.7709 92.7568 19.8482C91.8469 18.919 91.392 17.6898 91.392 16.1606C91.392 14.4958 91.8663 13.1956 92.8148 12.26C93.7698 11.3243 95.0539 10.8565 96.667 10.8565C98.2157 10.8565 99.4223 11.3114 100.287 12.2212C101.152 13.1311 101.584 14.3925 101.584 16.0057C101.584 17.5866 101.116 18.8545 100.18 19.8095C99.2513 20.758 97.9995 21.2323 96.4251 21.2323ZM96.5315 12.6471C95.654 12.6471 94.9603 12.9536 94.4506 13.5666C93.9408 14.1796 93.6859 15.0249 93.6859 16.1025C93.6859 17.1413 93.944 17.9608 94.4602 18.5609C94.9764 19.1546 95.6669 19.4514 96.5315 19.4514C97.4155 19.4514 98.0931 19.1578 98.5641 18.5706C99.0416 17.9834 99.2803 17.1478 99.2803 16.0638C99.2803 14.9733 99.0416 14.1312 98.5641 13.5376C98.0931 12.9439 97.4155 12.6471 96.5315 12.6471ZM112.705 21H110.459V15.4153C110.459 13.5634 109.805 12.6374 108.495 12.6374C107.811 12.6374 107.246 12.8955 106.801 13.4117C106.356 13.9215 106.133 14.5668 106.133 15.3475V21H103.878V11.0888H106.133V12.7342H106.172C106.914 11.4824 107.985 10.8565 109.385 10.8565C110.463 10.8565 111.285 11.2082 111.853 11.9115C112.421 12.6084 112.705 13.6182 112.705 14.941V21ZM115.067 20.4483V18.077C115.28 18.2706 115.531 18.4448 115.822 18.5996C116.118 18.7545 116.431 18.8868 116.76 18.9965C117.09 19.0997 117.419 19.1804 117.748 19.2384C118.077 19.2965 118.38 19.3256 118.657 19.3256C119.625 19.3256 120.345 19.1642 120.816 18.8416C121.293 18.519 121.532 18.0512 121.532 17.4382C121.532 17.1091 121.451 16.8252 121.29 16.5864C121.135 16.3412 120.916 16.1186 120.632 15.9186C120.348 15.7185 120.013 15.5282 119.625 15.3475C119.245 15.1604 118.835 14.9668 118.396 14.7668C117.925 14.5151 117.486 14.2603 117.08 14.0022C116.673 13.7441 116.318 13.4601 116.015 13.1504C115.718 12.8342 115.483 12.4793 115.309 12.0857C115.141 11.6921 115.057 11.2308 115.057 10.7017C115.057 10.0499 115.202 9.48534 115.492 9.00785C115.789 8.5239 116.176 8.12707 116.654 7.81734C117.138 7.50117 117.686 7.26887 118.299 7.12046C118.912 6.9656 119.538 6.88817 120.177 6.88817C121.629 6.88817 122.687 7.05271 123.352 7.38179V9.65633C122.565 9.0885 121.551 8.80459 120.313 8.80459C119.971 8.80459 119.629 8.83685 119.287 8.90138C118.951 8.96591 118.648 9.07237 118.377 9.22078C118.112 9.36919 117.896 9.55954 117.728 9.79184C117.561 10.0241 117.477 10.3048 117.477 10.6339C117.477 10.9436 117.541 11.2114 117.67 11.4373C117.799 11.6631 117.986 11.8696 118.232 12.0567C118.483 12.2438 118.787 12.4277 119.141 12.6084C119.503 12.7826 119.919 12.973 120.39 13.1795C120.874 13.4311 121.329 13.6957 121.755 13.9731C122.187 14.2506 122.565 14.5571 122.887 14.8926C123.216 15.2282 123.474 15.6024 123.661 16.0154C123.855 16.4219 123.952 16.8865 123.952 17.4091C123.952 18.1125 123.81 18.7061 123.526 19.19C123.242 19.674 122.858 20.0676 122.374 20.3709C121.897 20.6741 121.345 20.8935 120.719 21.029C120.093 21.1645 119.432 21.2323 118.735 21.2323C118.503 21.2323 118.215 21.2129 117.873 21.1742C117.538 21.142 117.193 21.0903 116.838 21.0194C116.483 20.9548 116.147 20.8742 115.831 20.7774C115.515 20.6806 115.26 20.5709 115.067 20.4483ZM134.647 16.6542H127.891C127.917 17.5704 128.198 18.277 128.733 18.7739C129.275 19.2707 130.017 19.5191 130.959 19.5191C132.018 19.5191 132.989 19.203 133.873 18.5706V20.3806C132.969 20.9484 131.776 21.2323 130.292 21.2323C128.833 21.2323 127.688 20.7838 126.856 19.8869C126.03 18.9836 125.617 17.7156 125.617 16.0831C125.617 14.5409 126.072 13.2859 126.981 12.318C127.898 11.3437 129.033 10.8565 130.388 10.8565C131.743 10.8565 132.792 11.2921 133.534 12.1632C134.276 13.0343 134.647 14.2441 134.647 15.7928V16.6542ZM132.479 15.0668C132.472 14.2603 132.282 13.6344 131.908 13.1891C131.534 12.7374 131.017 12.5116 130.359 12.5116C129.714 12.5116 129.166 12.7471 128.714 13.2182C128.269 13.6892 127.994 14.3054 127.891 15.0668H132.479ZM142.013 20.8935C141.574 21.1129 140.996 21.2226 140.28 21.2226C138.357 21.2226 137.396 20.2999 137.396 18.4545V12.8504H135.741V11.0888H137.396V8.79491L139.641 8.1561V11.0888H142.013V12.8504H139.641V17.806C139.641 18.3932 139.748 18.8126 139.961 19.0642C140.174 19.3159 140.529 19.4417 141.025 19.4417C141.406 19.4417 141.735 19.332 142.013 19.1126V20.8935ZM152.592 21H150.346V19.432H150.307C149.656 20.6322 148.643 21.2323 147.268 21.2323C144.926 21.2323 143.755 19.8256 143.755 17.0123V11.0888H146V16.78C146 18.5609 146.688 19.4514 148.062 19.4514C148.727 19.4514 149.272 19.2062 149.698 18.7158C150.13 18.2254 150.346 17.5833 150.346 16.7897V11.0888H152.592V21ZM172.637 21H170.11L168.862 17.4672H163.403L162.203 21H159.686L164.884 7.12046H167.478L172.637 21ZM168.252 15.5895L166.326 10.0532C166.268 9.8725 166.207 9.58213 166.142 9.18207H166.103C166.045 9.54987 165.981 9.84023 165.91 10.0532L164.003 15.5895H168.252ZM183.313 21H181.067V19.3159H181.028C180.306 20.5935 179.193 21.2323 177.689 21.2323C176.47 21.2323 175.492 20.7903 174.756 19.9063C174.027 19.0158 173.663 17.806 173.663 16.2767C173.663 14.6377 174.066 13.3246 174.873 12.3374C175.686 11.3501 176.766 10.8565 178.115 10.8565C179.451 10.8565 180.422 11.3921 181.028 12.4632H181.067V6.32679H183.313V21ZM181.096 16.4703V15.1733C181.096 14.47 180.867 13.8731 180.409 13.3827C179.951 12.8923 179.367 12.6471 178.657 12.6471C177.818 12.6471 177.157 12.9601 176.673 13.586C176.195 14.2119 175.957 15.0797 175.957 16.1896C175.957 17.1962 176.186 17.9931 176.644 18.5803C177.108 19.161 177.731 19.4514 178.512 19.4514C179.28 19.4514 179.902 19.1707 180.38 18.6093C180.857 18.0415 181.096 17.3285 181.096 16.4703ZM201.064 21H198.818V15.5992C198.818 14.5603 198.67 13.8086 198.373 13.344C198.083 12.8794 197.589 12.6471 196.892 12.6471C196.305 12.6471 195.805 12.9407 195.392 13.5279C194.985 14.1151 194.782 14.8184 194.782 15.6379V21H192.527V15.4153C192.527 13.5698 191.875 12.6471 190.572 12.6471C189.965 12.6471 189.465 12.9246 189.071 13.4795C188.684 14.0344 188.491 14.7539 188.491 15.6379V21H186.245V11.0888H188.491V12.6568H188.529C189.246 11.4566 190.288 10.8565 191.656 10.8565C192.34 10.8565 192.937 11.0469 193.446 11.4276C193.963 11.8018 194.314 12.2954 194.501 12.9084C195.237 11.5405 196.334 10.8565 197.792 10.8565C199.973 10.8565 201.064 12.2019 201.064 14.8926V21ZM204.935 9.00785C204.567 9.00785 204.251 8.88847 203.987 8.64973C203.729 8.41098 203.599 8.10771 203.599 7.73991C203.599 7.37211 203.729 7.06562 203.987 6.82042C204.251 6.57522 204.567 6.45262 204.935 6.45262C205.316 6.45262 205.638 6.57522 205.903 6.82042C206.168 7.06562 206.3 7.37211 206.3 7.73991C206.3 8.08835 206.168 8.3884 205.903 8.64005C205.638 8.88525 205.316 9.00785 204.935 9.00785ZM206.048 21H203.803V11.0888H206.048V21ZM217.818 21H215.572V15.4153C215.572 13.5634 214.917 12.6374 213.607 12.6374C212.923 12.6374 212.359 12.8955 211.914 13.4117C211.468 13.9215 211.246 14.5668 211.246 15.3475V21H208.991V11.0888H211.246V12.7342H211.285C212.027 11.4824 213.098 10.8565 214.498 10.8565C215.576 10.8565 216.398 11.2082 216.966 11.9115C217.534 12.6084 217.818 13.6182 217.818 14.941V21ZM228.571 15.967V21H226.277V7.12046H230.487C232.081 7.12046 233.317 7.49149 234.194 8.23354C235.072 8.97558 235.511 10.0209 235.511 11.3695C235.511 12.7181 235.053 13.8215 234.136 14.6797C233.22 15.5379 231.981 15.967 230.42 15.967H228.571ZM228.571 9.01753V14.0893H230.062C231.049 14.0893 231.801 13.8602 232.317 13.4021C232.833 12.9439 233.091 12.2987 233.091 11.4663C233.091 9.83378 232.143 9.01753 230.245 9.01753H228.571ZM241.337 21.2323C239.808 21.2323 238.585 20.7709 237.669 19.8482C236.759 18.919 236.304 17.6898 236.304 16.1606C236.304 14.4958 236.779 13.1956 237.727 12.26C238.682 11.3243 239.966 10.8565 241.579 10.8565C243.128 10.8565 244.335 11.3114 245.199 12.2212C246.064 13.1311 246.496 14.3925 246.496 16.0057C246.496 17.5866 246.029 18.8545 245.093 19.8095C244.164 20.758 242.912 21.2323 241.337 21.2323ZM241.444 12.6471C240.566 12.6471 239.873 12.9536 239.363 13.5666C238.853 14.1796 238.598 15.0249 238.598 16.1025C238.598 17.1413 238.856 17.9608 239.373 18.5609C239.889 19.1546 240.579 19.4514 241.444 19.4514C242.328 19.4514 243.005 19.1578 243.477 18.5706C243.954 17.9834 244.193 17.1478 244.193 16.0638C244.193 14.9733 243.954 14.1312 243.477 13.5376C243.005 12.9439 242.328 12.6471 241.444 12.6471ZM254.54 13.2278C254.269 13.0149 253.878 12.9084 253.368 12.9084C252.704 12.9084 252.149 13.2085 251.704 13.8086C251.258 14.4087 251.036 15.2249 251.036 16.2573V21H248.79V11.0888H251.036V13.1311H251.074C251.294 12.4342 251.629 11.8922 252.081 11.505C252.539 11.1114 253.049 10.9146 253.61 10.9146C254.017 10.9146 254.327 10.9759 254.54 11.0985V13.2278ZM261.934 20.8935C261.495 21.1129 260.918 21.2226 260.202 21.2226C258.279 21.2226 257.317 20.2999 257.317 18.4545V12.8504H255.662V11.0888H257.317V8.79491L259.563 8.1561V11.0888H261.934V12.8504H259.563V17.806C259.563 18.3932 259.669 18.8126 259.882 19.0642C260.095 19.3159 260.45 19.4417 260.947 19.4417C261.328 19.4417 261.657 19.332 261.934 19.1126V20.8935ZM271.478 21H269.3V19.4514H269.261C268.577 20.6387 267.574 21.2323 266.251 21.2323C265.277 21.2323 264.512 20.9677 263.957 20.4386C263.409 19.9095 263.134 19.2094 263.134 18.3383C263.134 16.4671 264.212 15.3766 266.367 15.0668L269.31 14.6506C269.31 13.2375 268.638 12.531 267.296 12.531C266.115 12.531 265.051 12.9375 264.102 13.7505V11.7857C265.148 11.1662 266.354 10.8565 267.722 10.8565C270.226 10.8565 271.478 12.089 271.478 14.5539V21ZM269.31 16.1315L267.229 16.4219C266.583 16.5058 266.096 16.6639 265.767 16.8961C265.444 17.122 265.283 17.522 265.283 18.0963C265.283 18.5157 265.431 18.861 265.728 19.132C266.032 19.3965 266.435 19.5288 266.938 19.5288C267.622 19.5288 268.187 19.2901 268.632 18.8126C269.084 18.3286 269.31 17.7221 269.31 16.9929V16.1315ZM276.482 21H274.226V6.32679H276.482V21Z" fill="#2A3744"/>
<path d="M57.3668 36.2734H56.1086L52.7935 31.1727C52.7097 31.0436 52.6403 30.9097 52.5854 30.771H52.5564C52.5822 30.9194 52.5951 31.2372 52.5951 31.7244V36.2734H51.4821V29.3337H52.8226L56.0263 34.3135C56.1618 34.5199 56.2489 34.6619 56.2876 34.7393H56.307C56.2747 34.5554 56.2586 34.2441 56.2586 33.8053V29.3337H57.3668V36.2734ZM63.9291 35.9831C63.4065 36.2541 62.7564 36.3896 61.9788 36.3896C60.9722 36.3896 60.1656 36.0718 59.5591 35.4362C58.9526 34.8006 58.6493 33.9666 58.6493 32.9342C58.6493 31.8244 58.9897 30.9275 59.6704 30.2435C60.3544 29.5595 61.2174 29.2175 62.2595 29.2175C62.9306 29.2175 63.4871 29.3127 63.9291 29.503V30.6452C63.4613 30.3677 62.9451 30.229 62.3805 30.229C61.6288 30.229 61.019 30.4693 60.5512 30.95C60.0866 31.4308 59.8543 32.0728 59.8543 32.8761C59.8543 33.6408 60.0721 34.2505 60.5076 34.7055C60.9432 35.1571 61.5158 35.383 62.2256 35.383C62.8806 35.383 63.4484 35.2281 63.9291 34.9184V35.9831ZM69.8042 35.9831C69.2815 36.2541 68.6314 36.3896 67.8539 36.3896C66.8473 36.3896 66.0407 36.0718 65.4342 35.4362C64.8276 34.8006 64.5244 33.9666 64.5244 32.9342C64.5244 31.8244 64.8647 30.9275 65.5455 30.2435C66.2295 29.5595 67.0925 29.2175 68.1346 29.2175C68.8057 29.2175 69.3622 29.3127 69.8042 29.503V30.6452C69.3364 30.3677 68.8202 30.229 68.2556 30.229C67.5039 30.229 66.8941 30.4693 66.4263 30.95C65.9617 31.4308 65.7294 32.0728 65.7294 32.8761C65.7294 33.6408 65.9472 34.2505 66.3827 34.7055C66.8183 35.1571 67.3909 35.383 68.1007 35.383C68.7557 35.383 69.3235 35.2281 69.8042 34.9184V35.9831ZM76.4826 36.2734H75.1373L74.029 34.4151C73.929 34.2441 73.8306 34.0989 73.7338 33.9795C73.6403 33.8569 73.5435 33.7569 73.4435 33.6795C73.3467 33.6021 73.2402 33.5456 73.1241 33.5101C73.0079 33.4746 72.8773 33.4569 72.7321 33.4569H72.2675V36.2734H71.1205V29.3337H73.4048C73.7306 29.3337 74.0307 29.3724 74.3049 29.4498C74.5791 29.5272 74.8179 29.645 75.0211 29.8031C75.2244 29.958 75.3825 30.1531 75.4954 30.3887C75.6115 30.621 75.6696 30.8936 75.6696 31.2065C75.6696 31.4517 75.6325 31.6776 75.5583 31.8841C75.4873 32.0873 75.3841 32.2696 75.2486 32.4309C75.1163 32.589 74.955 32.7245 74.7646 32.8374C74.5775 32.9503 74.3662 33.0375 74.1307 33.0988V33.1181C74.2565 33.1891 74.3662 33.2681 74.4598 33.3553C74.5533 33.4391 74.642 33.5262 74.7259 33.6166C74.8098 33.7069 74.8921 33.8102 74.9727 33.9263C75.0566 34.0392 75.1486 34.1715 75.2486 34.3231L76.4826 36.2734ZM72.2675 30.2677V32.5229H73.2257C73.4031 32.5229 73.5661 32.4954 73.7145 32.4406C73.8661 32.3857 73.9968 32.3067 74.1065 32.2035C74.2162 32.1002 74.3017 31.9744 74.363 31.826C74.4243 31.6776 74.4549 31.5114 74.4549 31.3275C74.4549 30.9952 74.3501 30.7355 74.1404 30.5484C73.9306 30.3612 73.629 30.2677 73.2354 30.2677H72.2675ZM78.22 35.1168L77.4699 37.5317H76.6278L77.1602 35.1168H78.22ZM89.8686 36.2734H88.7264V31.7824C88.7264 31.4146 88.749 30.9646 88.7942 30.4322H88.7748C88.7039 30.7355 88.641 30.9533 88.5861 31.0855L86.5148 36.2734H85.7212L83.645 31.1243C83.587 30.9726 83.5257 30.7419 83.4611 30.4322H83.4418C83.4676 30.7097 83.4805 31.163 83.4805 31.7921V36.2734H82.4158V29.3337H84.037L85.8615 33.9553C86.0002 34.3102 86.0906 34.5748 86.1325 34.749H86.1567C86.2761 34.3844 86.3729 34.1134 86.4471 33.936L88.3054 29.3337H89.8686V36.2734ZM94.4418 36.3896C93.4417 36.3896 92.6399 36.0653 92.0366 35.4169C91.4365 34.7684 91.1365 33.9247 91.1365 32.8858C91.1365 31.7695 91.443 30.8791 92.056 30.2144C92.669 29.5498 93.5014 29.2175 94.5531 29.2175C95.5275 29.2175 96.3115 29.5402 96.9051 30.1854C97.502 30.8307 97.8004 31.6743 97.8004 32.7164C97.8004 33.8489 97.4955 34.7442 96.8858 35.4023C96.276 36.0605 95.4613 36.3896 94.4418 36.3896ZM94.4951 30.229C93.8595 30.229 93.3417 30.4661 92.9416 30.9404C92.5448 31.4146 92.3464 32.0389 92.3464 32.8132C92.3464 33.5843 92.5399 34.2054 92.9271 34.6764C93.3142 35.1475 93.8208 35.383 94.4467 35.383C95.1113 35.383 95.6356 35.1588 96.0195 34.7103C96.4034 34.2618 96.5954 33.6343 96.5954 32.8278C96.5954 31.9986 96.4083 31.3582 96.034 30.9065C95.663 30.4548 95.15 30.229 94.4951 30.229ZM102.969 36.2734H99.0732V29.3337H102.814V30.3112H100.225V32.2761H102.611V33.2488H100.225V35.3007H102.969V36.2734ZM103.884 35.9976V34.8119C103.99 34.9087 104.116 34.9958 104.261 35.0733C104.409 35.1507 104.566 35.2168 104.731 35.2717C104.895 35.3233 105.06 35.3636 105.224 35.3927C105.389 35.4217 105.54 35.4362 105.679 35.4362C106.163 35.4362 106.523 35.3556 106.758 35.1942C106.997 35.0329 107.116 34.799 107.116 34.4925C107.116 34.328 107.076 34.186 106.995 34.0666C106.918 33.944 106.808 33.8327 106.666 33.7327C106.524 33.6327 106.357 33.5375 106.163 33.4472C105.973 33.3536 105.768 33.2568 105.548 33.1568C105.313 33.031 105.093 32.9036 104.89 32.7745C104.687 32.6455 104.51 32.5035 104.358 32.3486C104.209 32.1906 104.092 32.0131 104.005 31.8163C103.921 31.6195 103.879 31.3888 103.879 31.1243C103.879 30.7984 103.951 30.5161 104.097 30.2774C104.245 30.0354 104.439 29.837 104.677 29.6821C104.919 29.524 105.193 29.4079 105.5 29.3337C105.806 29.2562 106.119 29.2175 106.439 29.2175C107.165 29.2175 107.694 29.2998 108.026 29.4643V30.6016C107.633 30.3177 107.126 30.1757 106.507 30.1757C106.336 30.1757 106.165 30.1919 105.994 30.2241C105.826 30.2564 105.674 30.3096 105.539 30.3838C105.406 30.458 105.298 30.5532 105.214 30.6694C105.131 30.7855 105.089 30.9258 105.089 31.0904C105.089 31.2453 105.121 31.3791 105.185 31.4921C105.25 31.605 105.343 31.7082 105.466 31.8018C105.592 31.8953 105.744 31.9873 105.921 32.0776C106.102 32.1647 106.31 32.2599 106.545 32.3632C106.787 32.489 107.015 32.6213 107.228 32.76C107.444 32.8987 107.633 33.052 107.794 33.2197C107.958 33.3875 108.087 33.5746 108.181 33.7811C108.278 33.9844 108.326 34.2167 108.326 34.478C108.326 34.8297 108.255 35.1265 108.113 35.3685C107.971 35.6104 107.779 35.8072 107.537 35.9589C107.299 36.1105 107.023 36.2202 106.71 36.288C106.397 36.3557 106.066 36.3896 105.718 36.3896C105.602 36.3896 105.458 36.3799 105.287 36.3605C105.119 36.3444 104.947 36.3186 104.769 36.2831C104.592 36.2509 104.424 36.2105 104.266 36.1621C104.108 36.1137 103.98 36.0589 103.884 35.9976ZM110.528 35.1168L109.778 37.5317H108.936L109.468 35.1168H110.528ZM120.139 35.7992C119.417 36.1928 118.612 36.3896 117.724 36.3896C116.698 36.3896 115.868 36.0702 115.232 35.4314C114.597 34.7926 114.279 33.9473 114.279 32.8955C114.279 31.8211 114.626 30.9404 115.319 30.2532C116.016 29.5627 116.9 29.2175 117.971 29.2175C118.742 29.2175 119.391 29.3304 119.917 29.5563V30.7419C119.384 30.3871 118.75 30.2096 118.015 30.2096C117.276 30.2096 116.669 30.4532 116.195 30.9404C115.724 31.4275 115.489 32.0583 115.489 32.8326C115.489 33.6295 115.692 34.257 116.098 34.7151C116.505 35.17 117.057 35.3975 117.753 35.3975C118.231 35.3975 118.644 35.3055 118.992 35.1216V33.4714H117.531V32.5035H120.139V35.7992ZM123.706 36.3896C122.941 36.3896 122.33 36.1589 121.872 35.6975C121.417 35.233 121.189 34.6183 121.189 33.8537C121.189 33.0213 121.427 32.3712 121.901 31.9034C122.378 31.4356 123.02 31.2017 123.827 31.2017C124.601 31.2017 125.205 31.4291 125.637 31.8841C126.069 32.339 126.285 32.9697 126.285 33.7763C126.285 34.5667 126.051 35.2007 125.584 35.6782C125.119 36.1525 124.493 36.3896 123.706 36.3896ZM123.759 32.097C123.32 32.097 122.974 32.2502 122.719 32.5567C122.464 32.8632 122.336 33.2859 122.336 33.8247C122.336 34.3441 122.465 34.7539 122.724 35.0539C122.982 35.3507 123.327 35.4991 123.759 35.4991C124.201 35.4991 124.54 35.3523 124.775 35.0587C125.014 34.7651 125.134 34.3473 125.134 33.8053C125.134 33.2601 125.014 32.839 124.775 32.5422C124.54 32.2454 124.201 32.097 123.759 32.097ZM131.701 31.3178L129.784 36.2734H128.57L126.745 31.3178H127.965L129.063 34.7829C129.147 35.0378 129.199 35.2604 129.218 35.4507H129.233C129.262 35.212 129.307 34.9958 129.368 34.8022L130.52 31.3178H131.701ZM135.079 36.2202C134.859 36.3299 134.571 36.3847 134.212 36.3847C133.251 36.3847 132.77 35.9234 132.77 35.0007V32.1986H131.943V31.3178H132.77V30.1709L133.893 29.8515V31.3178H135.079V32.1986H133.893V34.6764C133.893 34.97 133.946 35.1797 134.053 35.3055C134.159 35.4314 134.337 35.4943 134.585 35.4943C134.775 35.4943 134.94 35.4394 135.079 35.3297V36.2202ZM140.973 36.3896C140.208 36.3896 139.597 36.1589 139.139 35.6975C138.684 35.233 138.457 34.6183 138.457 33.8537C138.457 33.0213 138.694 32.3712 139.168 31.9034C139.646 31.4356 140.288 31.2017 141.094 31.2017C141.868 31.2017 142.472 31.4291 142.904 31.8841C143.336 32.339 143.553 32.9697 143.553 33.7763C143.553 34.5667 143.319 35.2007 142.851 35.6782C142.386 36.1525 141.76 36.3896 140.973 36.3896ZM141.026 32.097C140.588 32.097 140.241 32.2502 139.986 32.5567C139.731 32.8632 139.604 33.2859 139.604 33.8247C139.604 34.3441 139.733 34.7539 139.991 35.0539C140.249 35.3507 140.594 35.4991 141.026 35.4991C141.468 35.4991 141.807 35.3523 142.043 35.0587C142.281 34.7651 142.401 34.3473 142.401 33.8053C142.401 33.2601 142.281 32.839 142.043 32.5422C141.807 32.2454 141.468 32.097 141.026 32.097ZM147.337 29.8515C147.185 29.7644 147.013 29.7208 146.819 29.7208C146.274 29.7208 146.001 30.0289 146.001 30.6452V31.3178H147.153V32.1986H146.006V36.2734H144.883V32.1986H144.037V31.3178H144.883V30.5145C144.883 29.9918 145.054 29.5805 145.396 29.2804C145.738 28.9772 146.166 28.8255 146.679 28.8255C146.956 28.8255 147.176 28.8562 147.337 28.9175V29.8515ZM151.988 36.2734H150.802V29.3337H151.988V36.2734ZM157.989 36.2734H156.866V33.4811C156.866 32.5551 156.538 32.0922 155.883 32.0922C155.541 32.0922 155.259 32.2212 155.037 32.4793C154.814 32.7342 154.703 33.0568 154.703 33.4472V36.2734H153.575V31.3178H154.703V32.1405H154.722C155.093 31.5146 155.629 31.2017 156.329 31.2017C156.867 31.2017 157.279 31.3775 157.563 31.7292C157.847 32.0776 157.989 32.5826 157.989 33.2439V36.2734ZM163.869 36.2734H162.746V35.4314H162.726C162.365 36.0702 161.809 36.3896 161.057 36.3896C160.447 36.3896 159.958 36.1686 159.59 35.7266C159.226 35.2814 159.044 34.6764 159.044 33.9118C159.044 33.0923 159.245 32.4358 159.649 31.9421C160.055 31.4485 160.595 31.2017 161.27 31.2017C161.938 31.2017 162.423 31.4695 162.726 32.005H162.746V28.9368H163.869V36.2734ZM162.76 34.0086V33.3601C162.76 33.0084 162.646 32.71 162.417 32.4648C162.188 32.2196 161.896 32.097 161.541 32.097C161.121 32.097 160.791 32.2535 160.549 32.5664C160.31 32.8794 160.191 33.3133 160.191 33.8682C160.191 34.3715 160.305 34.77 160.534 35.0636C160.766 35.3539 161.078 35.4991 161.468 35.4991C161.852 35.4991 162.163 35.3588 162.402 35.0781C162.641 34.7942 162.76 34.4377 162.76 34.0086ZM165.901 30.2774C165.717 30.2774 165.559 30.2177 165.427 30.0983C165.298 29.9789 165.233 29.8273 165.233 29.6434C165.233 29.4595 165.298 29.3062 165.427 29.1836C165.559 29.061 165.717 28.9997 165.901 28.9997C166.091 28.9997 166.253 29.061 166.385 29.1836C166.517 29.3062 166.583 29.4595 166.583 29.6434C166.583 29.8176 166.517 29.9676 166.385 30.0935C166.253 30.2161 166.091 30.2774 165.901 30.2774ZM166.458 36.2734H165.335V31.3178H166.458V36.2734ZM171.733 36.2734H170.644V35.4991H170.624C170.282 36.0928 169.781 36.3896 169.119 36.3896C168.632 36.3896 168.25 36.2573 167.972 35.9927C167.698 35.7282 167.561 35.3781 167.561 34.9426C167.561 34.007 168.1 33.4617 169.177 33.3069L170.649 33.0988C170.649 32.3922 170.313 32.0389 169.642 32.0389C169.052 32.0389 168.519 32.2422 168.045 32.6487V31.6663C168.568 31.3566 169.171 31.2017 169.855 31.2017C171.107 31.2017 171.733 31.8179 171.733 33.0504V36.2734ZM170.649 33.8392L169.608 33.9844C169.286 34.0263 169.042 34.1054 168.877 34.2215C168.716 34.3344 168.635 34.5345 168.635 34.8216C168.635 35.0313 168.71 35.2039 168.858 35.3394C169.01 35.4717 169.211 35.5378 169.463 35.5378C169.805 35.5378 170.087 35.4185 170.31 35.1797C170.536 34.9377 170.649 34.6345 170.649 34.2699V33.8392Z" fill="#008FF5"/>
<defs>
<linearGradient id="paint0_linear_326_941" x1="20.0148" y1="0.758845" x2="22.7656" y2="14.3232" gradientUnits="userSpaceOnUse">
<stop stop-color="#48B3FF"/>
<stop offset="1" stop-color="#2E495E"/>
</linearGradient>
<linearGradient id="paint1_linear_326_941" x1="19.9302" y1="4.6064" x2="27.1014" y2="12.0029" gradientUnits="userSpaceOnUse">
<stop stop-color="#47ACF5"/>
<stop offset="1" stop-color="#008FF5"/>
</linearGradient>
</defs>
</svg>
